{"asset":{"version":"2.0","generator":"babylon.js glTF exporter for 3dsmax 2020 v20201119.2"},"scene":0,"scenes":[{"nodes":[0,1]}],"nodes":[{"mesh":0,"translation":[-0.0612160675,0.0,0.202131361],"name":"Turntable"},{"name":"Default light"}],"meshes":[{"primitives":[{"attributes":{"POSITION":1,"NORMAL":2,"TEXCOORD_0":3},"indices":0,"material":0}],"name":"Turntable"}],"accessors":[{"bufferView":0,"componentType":5123,"count":432,"type":"SCALAR","name":"accessorIndices"},{"bufferView":1,"componentType":5126,"count":432,"max":[2.7,0.240212023,2.7],"min":[-2.7,0.0,-2.7],"type":"VEC3","name":"accessorPositions"},{"bufferView":1,"byteOffset":5184,"componentType":5126,"count":432,"type":"VEC3","name":"accessorNormals"},{"bufferView":2,"componentType":5126,"count":432,"type":"VEC2","name":"accessorUVs"}],"bufferViews":[{"buffer":0,"byteLength":864,"name":"bufferViewScalar"},{"buffer":0,"byteOffset":864,"byteLength":10368,"byteStride":12,"name":"bufferViewFloatVec3"},{"buffer":0,"byteOffset":11232,"byteLength":3456,"byteStride":8,"name":"bufferViewFloatVec2"}],"buffers":[{"uri":"turntable.bin","byteLength":14688}],"materials":[{"pbrMetallicRoughness":{"baseColorFactor":[0.996078432,0.992156863,0.9411765,1.0],"metallicFactor":0.0,"roughnessFactor":0.6},"name":"Rubber #2"}]}