<svg xmlns="http://www.w3.org/2000/svg" viewBox="0 0 1749.5 381.5"><defs><style>.cls-1{fill:#1a4273;opacity:0.85;}.cls-2{fill:#fff;}</style></defs><g id="Ebene_2" data-name="Ebene 2"><g id="Ebene_2_Kopie" data-name="Ebene 2 Kopie"><path class="cls-1" d="M0,24.5,1749.5,0,1595.79,381.5,55.15,363.5Q27.58,194,0,24.5Z"/></g><g id="Schrift"><path class="cls-2" d="M261.39,237.49q-12-.72-21.28-1.78V221.65Q263.26,224,278.74,224a113.85,113.85,0,0,0,15.22-.8,27.85,27.85,0,0,0,9.52-2.94,9.92,9.92,0,0,0,4.63-6.32,46.57,46.57,0,0,0,1.07-11.12q0-8.37-.89-11.84a7.52,7.52,0,0,0-4.18-5.07q-3.3-1.6-11.31-2.31l-30.26-3.39q-11-1.24-16.64-5.25a19.08,19.08,0,0,1-7.48-10.5q-1.86-6.49-1.87-17,0-14.59,5.08-22.07a24.27,24.27,0,0,1,14.24-10q9.17-2.49,24.65-2.49,10.32,0,21,.89a156,156,0,0,1,16.91,2.14v13.52q-6.76-1.06-16.73-1.69t-18.51-.62a115.28,115.28,0,0,0-16,.89,24.24,24.24,0,0,0-9.43,3,9.7,9.7,0,0,0-4.81,5.69,37.29,37.29,0,0,0-1.07,10.15q0,7.29,1.07,10.59a7.83,7.83,0,0,0,4.09,4.8q3,1.51,10,2.23l29.91,3.38q10.68,1.06,16.55,3.74t8.54,9.61q2.49,6.4,2.5,20.47,0,16.2-5,24.12A22.19,22.19,0,0,1,306.15,236q-8.37,2.22-23,2.22Q273.4,238.2,261.39,237.49Z"/><path class="cls-2" d="M352.08,146h12.81l.71,12.81h1.07A20,20,0,0,1,378,147.6a51.14,51.14,0,0,1,18.61-3q13.51,0,20.64,4.1t10.06,14q2.94,9.88,2.94,28.57,0,18.87-2.94,28.83t-10,14.07q-7,4.09-20.38,4.09-11.56,0-18.78-2.85a19.9,19.9,0,0,1-10.77-10h-.89v47H352.08Zm55.26,76q4.91-2.13,6.59-8.72t1.69-21.89q0-15.31-1.69-21.9t-6.59-8.81q-4.89-2.22-16.46-2.22-9.08,0-14.42,2.49A14.25,14.25,0,0,0,369,168.6a30.71,30.71,0,0,0-2.05,9.08q-.45,5.16-.45,13.71,0,8.72.36,13.7a26.56,26.56,0,0,0,1.78,8.37,14.8,14.8,0,0,0,7.65,8.19q5.34,2.49,14.6,2.49Q402.44,224.14,407.34,222Z"/><path class="cls-2" d="M457.27,146h12.82l.71,17.26h1.07q3.19-10.68,10.68-14.68t19.58-4v15.49q-12.28,0-18.87,3.74a19.51,19.51,0,0,0-9.08,11.48q-2.49,7.74-2.49,20.91v40.59H457.27Z"/><path class="cls-2" d="M522.24,232.42q-7.12-5.79-7.12-20.56,0-10.5,2.49-16.38a15.89,15.89,0,0,1,8.46-8.54q6-2.67,16.82-2.67,5.16,0,34,.89v-5.34q0-10.68-2-15.13a10.18,10.18,0,0,0-7.48-5.7q-5.43-1.25-18.42-1.24-5.7,0-14.33.62c-5.76.42-10.23.86-13.44,1.33V147.07a190,190,0,0,1,32.93-2.5q16,0,23.94,3.3a17.94,17.94,0,0,1,10.6,10.68q2.67,7.38,2.67,21.45v56.78h-13l-.71-12.64h-1.07a19.51,19.51,0,0,1-12,11.3A61.81,61.81,0,0,1,545,238.2Q529.36,238.2,522.24,232.42Zm42.81-8.81a12.69,12.69,0,0,0,8.1-6.23q3.74-6.42,3.74-17.8v-4.1H546.63q-7.49,0-11,1.07a7.53,7.53,0,0,0-4.89,4.18c-1,2.08-1.43,5.31-1.43,9.7s.54,7.42,1.6,9.44,3.06,3.41,6,4.18,7.44,1.16,13.61,1.16A54.49,54.49,0,0,0,565.05,223.61Z"/><path class="cls-2" d="M668.29,237.49a128.09,128.09,0,0,1-13.08.71q-16.74,0-24.57-4.8a21.91,21.91,0,0,1-10.06-14.24q-2.22-9.43-2.22-27.77,0-18,2.67-27.77t10.5-14.42q7.83-4.62,23.14-4.63a124,124,0,0,1,12.91.72q6.84.71,11.66,1.6V159.7a116.87,116.87,0,0,0-21-1.95q-11.38,0-16.64,2.67t-7,9.43q-1.78,6.77-1.78,21.54,0,15,1.87,21.8t7.12,9.35q5.25,2.49,17,2.49A153.12,153.12,0,0,0,680,223.25v12.64Q675.14,236.77,668.29,237.49Z"/><path class="cls-2" d="M765.56,185.69q0-12.63-1.6-18.07c-1.07-3.61-3.08-6-6.05-7.2S750,158.64,743,158.64q-11.22,0-16.47,3.56a15.25,15.25,0,0,0-6.58,9.79q-1.33,6.22-1.34,18v46.82H704.15V104.52h14.42v53.4h.89a19.73,19.73,0,0,1,9.7-9.79q6.86-3.37,19.67-3.38,13.17,0,19.85,3.65a18.37,18.37,0,0,1,9,11Q780,166.82,780,180v56.78H765.56Z"/><path class="cls-2" d="M883.4,196.55H821.28q0,13,1.78,18.51a12,12,0,0,0,7.74,7.74q6,2.23,20,2.23a228.35,228.35,0,0,0,29-2v12.64a146.53,146.53,0,0,1-14.77,1.78q-9.09.7-17.27.71-18.33,0-27-4.27a21,21,0,0,1-11.3-13.71q-2.67-9.43-2.67-28.65,0-18.87,2.4-28.31a21.43,21.43,0,0,1,10.86-14.06q8.46-4.62,26.79-4.63,17.08,0,24.74,4.54a20.36,20.36,0,0,1,9.7,13.71q2.05,9.17,2,28.57Zm-53.49-36.76a11.27,11.27,0,0,0-6.76,7.66q-1.7,5.6-1.87,18.06h48.24v-1.42q0-11.75-2-17.27c-1.37-3.67-3.59-6.11-6.68-7.29s-7.83-1.78-14.24-1.78Q835,157.75,829.91,159.79Z"/><path class="cls-2" d="M971.87,185.69q0-12.63-1.61-18.07c-1.06-3.61-3.08-6-6-7.2s-8-1.78-15-1.78q-11.21,0-16.47,3.56a15.25,15.25,0,0,0-6.58,9.79q-1.34,6.22-1.33,18v46.82H910.46V146h12.81l.71,12.81h1.07a21.41,21.41,0,0,1,10-10.59q6.94-3.65,20.11-3.65T975,148.31a18.68,18.68,0,0,1,9,11.13q2.31,7.38,2.32,20.56v56.78H971.87Z"/></g></g></svg>