<svg xmlns="http://www.w3.org/2000/svg" viewBox="0 0 1749.5 381.5"><defs><style>.cls-1{fill:#1a4273;opacity:0.85;}.cls-2{fill:#fff;}</style></defs><g id="Ebene_2" data-name="Ebene 2"><g id="Ebene_2_Kopie" data-name="Ebene 2 Kopie"><path class="cls-1" d="M0,24.5,1749.5,0,1595.79,381.5,55.15,363.5Q27.58,194,0,24.5Z"/></g><g id="Schrift"><path class="cls-2" d="M353.19,237.25V141h-.71l-42,96.29H299.26L257.43,141h-.71v96.29H242.3V114.79H263L304.78,210h.89l41.83-95.23h20.65V237.25Z"/><path class="cls-2" d="M474.06,197H411.93q0,13,1.78,18.51a12,12,0,0,0,7.75,7.74q6,2.22,20,2.22a230.16,230.16,0,0,0,29-1.95v12.63A141.16,141.16,0,0,1,455.72,238q-9.08.72-17.26.72-18.34,0-27-4.27a21,21,0,0,1-11.3-13.71q-2.67-9.44-2.67-28.66,0-18.87,2.4-28.3a21.36,21.36,0,0,1,10.86-14.06q8.45-4.63,26.79-4.63,17.08,0,24.74,4.54a20.35,20.35,0,0,1,9.7,13.7q2,9.18,2.05,28.57Zm-53.49-36.76a11.25,11.25,0,0,0-6.77,7.65q-1.69,5.61-1.87,18.07h48.24v-1.43q0-11.75-2.05-17.26t-6.67-7.3q-4.63-1.77-14.24-1.78Q425.63,158.22,420.57,160.27Z"/><path class="cls-2" d="M562.52,186.17q0-12.64-1.6-18.07t-6-7.21q-4.46-1.77-15-1.78-11.22,0-16.47,3.56a15.31,15.31,0,0,0-6.59,9.79q-1.33,6.24-1.33,18v46.81H501.11V146.47h12.82l.71,12.82h1.07a21.28,21.28,0,0,1,10-10.59q6.93-3.64,20.11-3.65t19.85,3.74a18.73,18.73,0,0,1,9,11.12q2.31,7.4,2.31,20.56v56.78H562.52Z"/><path class="cls-2" d="M669.85,224.44h-1.06a21.37,21.37,0,0,1-10,10.59q-6.95,3.65-20.11,3.65-13,0-19.67-3.74a18.68,18.68,0,0,1-9-11.13q-2.32-7.38-2.32-20.56V146.47h14.42v51.09q0,12.81,1.51,18.15t6,7.12q4.44,1.78,15,1.79,11.22,0,16.46-3.57a15.65,15.65,0,0,0,6.68-9.87q1.42-6.33,1.42-17.89V146.47h14.42v90.78h-13ZM621.79,122.09V107.31H635.5v14.78Zm33.65,0V107.31H669v14.78Z"/></g></g></svg>