<svg id="Layer_2" data-name="Layer 2" xmlns="http://www.w3.org/2000/svg" viewBox="0 0 1682 901"><defs><style>.cls-1{fill:#fff;}</style></defs><title>splashscreen-stars</title><circle class="cls-1" cx="308.5" cy="177.5" r="10.5"/><circle class="cls-1" cx="185.5" cy="566.5" r="10.5"/><circle class="cls-1" cx="1319.5" cy="676.5" r="10.5"/><circle class="cls-1" cx="1459.5" cy="42.5" r="10.5"/><circle class="cls-1" cx="1490.5" cy="311.5" r="10.5"/><circle class="cls-1" cx="478.5" cy="869.5" r="10.5"/><circle class="cls-1" cx="746.5" cy="890.5" r="10.5"/><circle class="cls-1" cx="10.5" cy="271.5" r="10.5"/><circle class="cls-1" cx="1671.5" cy="879.5" r="10.5"/><circle class="cls-1" cx="706.5" cy="10.5" r="10.5"/><circle class="cls-1" cx="1650.5" cy="400.5" r="10.5"/><circle class="cls-1" cx="406.5" cy="517.5" r="10.5"/><circle class="cls-1" cx="226.5" cy="31.5" r="10.5"/><circle class="cls-1" cx="16.5" cy="890.5" r="10.5"/><circle class="cls-1" cx="1443.5" cy="470.5" r="10.5"/><circle class="cls-1" cx="1270.5" cy="332.5" r="10.5"/><circle class="cls-1" cx="1166.5" cy="10.5" r="10.5"/><circle class="cls-1" cx="1596.5" cy="177.5" r="10.5"/><circle class="cls-1" cx="429.5" cy="321.5" r="10.5"/><circle class="cls-1" cx="508.5" cy="697.5" r="10.5"/><circle class="cls-1" cx="1088.5" cy="880.5" r="10.5"/><circle class="cls-1" cx="884.5" cy="718.5" r="10.5"/><circle class="cls-1" cx="1132.5" cy="587.5" r="10.5"/></svg>