{"asset":{"version":"2.0","generator":"babylon.js glTF exporter for 3dsmax 2020 v20201119.2"},"scene":0,"scenes":[{"nodes":[0,1,2,3,4,5,6,7,8,9,10]}],"nodes":[{"mesh":0,"translation":[-0.7361111,0.4355993,-1.19386768],"rotation":[0.7071068,0.0,0.0,0.7071067],"scale":[1.0,0.99999994,0.99999994],"name":"Radkappe_Lathe"},{"mesh":1,"translation":[-0.733869135,0.484533221,-1.1931107],"rotation":[0.7071068,0.0,0.0,0.7071067],"scale":[1.0,0.99999994,0.99999994],"name":"Felge_Lathe"},{"mesh":1,"translation":[-0.0529838279,0.4845331,1.57234108],"rotation":[0.7071068,0.0,0.0,0.7071067],"name":"Felge_Lathe_vorne"},{"mesh":2,"translation":[-0.7105494,0.600559056,-1.22097051],"rotation":[0.7071068,0.0,0.0,0.7071067],"scale":[1.0,0.99999994,0.99999994],"name":"Reifen_Lathe"},{"mesh":2,"translation":[-0.0296641234,0.600558937,1.54448128],"rotation":[0.7071068,0.0,0.0,0.7071067],"name":"Reifen_Lathe_vorne"},{"mesh":3,"translation":[0.0,0.201581791,0.0167858452],"scale":[1.47195232,1.19318163,1.2503612],"name":"Karosserie"},{"mesh":4,"translation":[0.0,0.0,-0.4940243],"name":"Dach"},{"mesh":5,"translation":[-0.03769133,0.338110179,2.244021],"scale":[1.0,1.37155032,1.37155032],"name":"Bumper_Front"},{"mesh":6,"translation":[-0.06516602,0.0,-2.245323],"name":"Bumper_Back"},{"mesh":7,"translation":[-0.958260536,0.92999804,-0.122094333],"rotation":[0.7071068,0.0,0.0,0.7071067],"name":"OilTank001"},{"name":"Default light"}],"meshes":[{"primitives":[{"attributes":{"POSITION":1,"NORMAL":2},"indices":0}],"name":"Radkappe_Lathe"},{"primitives":[{"attributes":{"POSITION":4,"NORMAL":5},"indices":3,"material":0}],"name":"Felge_Lathe"},{"primitives":[{"attributes":{"POSITION":7,"NORMAL":8},"indices":6,"material":1}],"name":"Reifen_Lathe"},{"primitives":[{"attributes":{"POSITION":10,"NORMAL":11,"TEXCOORD_0":12},"indices":9,"material":2}],"name":"Karosserie"},{"primitives":[{"attributes":{"POSITION":14,"NORMAL":15,"TEXCOORD_0":16},"indices":13,"material":2}],"name":"Dach"},{"primitives":[{"attributes":{"POSITION":18,"NORMAL":19,"TEXCOORD_0":20},"indices":17,"material":0}],"name":"Bumper_Front"},{"primitives":[{"attributes":{"POSITION":22,"NORMAL":23,"TEXCOORD_0":24},"indices":21,"material":0}],"name":"Bumper_Back"},{"primitives":[{"attributes":{"POSITION":26,"NORMAL":27,"TEXCOORD_0":28},"indices":25,"material":0}],"name":"OilTank001"}],"accessors":[{"bufferView":0,"componentType":5123,"count":7833,"type":"SCALAR","name":"accessorIndices"},{"bufferView":1,"componentType":5126,"count":7833,"max":[0.0277478117,0.181013271,0.306144267],"min":[-0.0442824066,-0.181013241,-0.05598882],"type":"VEC3","name":"accessorPositions"},{"bufferView":1,"byteOffset":93996,"componentType":5126,"count":7833,"type":"VEC3","name":"accessorNormals"},{"bufferView":0,"byteOffset":15668,"componentType":5123,"count":26103,"type":"SCALAR","name":"accessorIndices"},{"bufferView":1,"byteOffset":187992,"componentType":5126,"count":26103,"max":[0.1325423,0.212082386,0.386289924],"min":[-0.0194006432,-0.212082356,-0.03787482],"type":"VEC3","name":"accessorPositions"},{"bufferView":1,"byteOffset":501228,"componentType":5126,"count":26103,"type":"VEC3","name":"accessorNormals"},{"bufferView":0,"byteOffset":67876,"componentType":5123,"count":20304,"type":"SCALAR","name":"accessorIndices"},{"bufferView":1,"byteOffset":814464,"componentType":5126,"count":20304,"max":[0.116878636,0.339829028,0.602540553],"min":[-0.05034679,-0.284638,-0.0219502579],"type":"VEC3","name":"accessorPositions"},{"bufferView":1,"byteOffset":1058112,"componentType":5126,"count":20304,"type":"VEC3","name":"accessorNormals"},{"bufferView":0,"byteOffset":108484,"componentType":5123,"count":2316,"type":"SCALAR","name":"accessorIndices"},{"bufferView":1,"byteOffset":1301760,"componentType":5126,"count":2316,"max":[0.614138,0.6846132,1.77174056],"min":[-0.614138,-0.00408801576,-1.83268011],"type":"VEC3","name":"accessorPositions"},{"bufferView":1,"byteOffset":1329552,"componentType":5126,"count":2316,"type":"VEC3","name":"accessorNormals"},{"bufferView":2,"componentType":5126,"count":2316,"type":"VEC2","name":"accessorUVs"},{"bufferView":0,"byteOffset":113116,"componentType":5123,"count":1500,"type":"SCALAR","name":"accessorIndices"},{"bufferView":1,"byteOffset":1357344,"componentType":5126,"count":1500,"max":[0.7979461,1.521384,0.922315],"min":[-0.7979461,0.919133961,-0.938750744],"type":"VEC3","name":"accessorPositions"},{"bufferView":1,"byteOffset":1375344,"componentType":5126,"count":1500,"type":"VEC3","name":"accessorNormals"},{"bufferView":2,"byteOffset":18528,"componentType":5126,"count":1500,"type":"VEC2","name":"accessorUVs"},{"bufferView":0,"byteOffset":116116,"componentType":5123,"count":336,"type":"SCALAR","name":"accessorIndices"},{"bufferView":1,"byteOffset":1393344,"componentType":5126,"count":336,"max":[0.841339648,0.111716576,0.111825652],"min":[-0.765956938,-0.008375721,-0.839825451],"type":"VEC3","name":"accessorPositions"},{"bufferView":1,"byteOffset":1397376,"componentType":5126,"count":336,"type":"VEC3","name":"accessorNormals"},{"bufferView":2,"byteOffset":30528,"componentType":5126,"count":336,"type":"VEC2","name":"accessorUVs"},{"bufferView":0,"byteOffset":116788,"componentType":5123,"count":396,"type":"SCALAR","name":"accessorIndices"},{"bufferView":1,"byteOffset":1401408,"componentType":5126,"count":396,"max":[0.9795996,0.433235765,0.394486666],"min":[-0.849267542,0.297107249,-0.0884731561],"type":"VEC3","name":"accessorPositions"},{"bufferView":1,"byteOffset":1406160,"componentType":5126,"count":396,"type":"VEC3","name":"accessorNormals"},{"bufferView":2,"byteOffset":33216,"componentType":5126,"count":396,"type":"VEC2","name":"accessorUVs"},{"bufferView":0,"byteOffset":117580,"componentType":5123,"count":2088,"type":"SCALAR","name":"accessorIndices"},{"bufferView":1,"byteOffset":1410912,"componentType":5126,"count":2088,"max":[1.974521,0.113932036,0.058],"min":[-0.058,-0.008454628,-0.058],"type":"VEC3","name":"accessorPositions"},{"bufferView":1,"byteOffset":1435968,"componentType":5126,"count":2088,"type":"VEC3","name":"accessorNormals"},{"bufferView":2,"byteOffset":36384,"componentType":5126,"count":2088,"type":"VEC2","name":"accessorUVs"}],"bufferViews":[{"buffer":0,"byteLength":121756,"name":"bufferViewScalar"},{"buffer":0,"byteOffset":121756,"byteLength":1461024,"byteStride":12,"name":"bufferViewFloatVec3"},{"buffer":0,"byteOffset":1582780,"byteLength":53088,"byteStride":8,"name":"bufferViewFloatVec2"}],"buffers":[{"uri":"carlowpoly.bin","byteLength":1635868}],"materials":[{"pbrMetallicRoughness":{"baseColorFactor":[0.5828877,0.5828877,0.5828877,1.0],"metallicFactor":0.0,"roughnessFactor":0.4},"name":"Clay #1"},{"pbrMetallicRoughness":{"baseColorFactor":[0.0,0.0,0.0,1.0],"metallicFactor":0.0,"roughnessFactor":0.4},"name":"Clay #2"},{"pbrMetallicRoughness":{"baseColorFactor":[0.0,0.8235294,0.625354,1.0],"metallicFactor":0.0,"roughnessFactor":0.4},"name":"Clay"}]}