<svg xmlns="http://www.w3.org/2000/svg" viewBox="0 0 1749.5 381.5"><defs><style>.cls-1{fill:#ffd500;}.cls-2{fill:#fff;}</style></defs><g id="Ebene_2" data-name="Ebene 2"><g id="Ebene_2_Kopie" data-name="Ebene 2 Kopie"><path class="cls-1" d="M0,24.5,1749.5,0,1595.79,381.5,55.15,363.5Q27.58,194,0,24.5Z"/></g><g id="Schrift"><path class="cls-2" d="M315.07,167.26V101.87h-.52l-27,65.39h-10.4L250.2,101.87h-.52v65.39H235.9V77.82h20l26.39,63.31H283l26.39-63.31h19.89v89.44Z"/><path class="cls-2" d="M406.07,139.05H362.78q0,7.92,1.1,11.24t5.2,4.62q4.1,1.29,13.85,1.3a196.07,196.07,0,0,0,20.54-1.3v11.44a88.89,88.89,0,0,1-10.92,1.43q-6.63.51-12.87.52-13.92,0-20.41-3.19A15.44,15.44,0,0,1,350.82,155q-1.95-6.9-1.95-20.8,0-13.26,1.95-20.28a16.65,16.65,0,0,1,8.32-10.53q6.36-3.51,19.63-3.51,12.74,0,18.52,3.51a15.34,15.34,0,0,1,7.28,10.2q1.5,6.7,1.5,20.61Zm-37.9-25.68a7.21,7.21,0,0,0-4.22,4.75q-1.05,3.38-1.17,10.92h30.16v-.26q0-7.41-1.3-10.92a7.51,7.51,0,0,0-4.23-4.68q-2.93-1.17-9-1.17Q371.36,112,368.17,113.37Z"/><path class="cls-2" d="M431,165.24q-5.07-3-7.28-10.33t-2.21-20.67q0-13.4,2.21-20.74T430.9,103q4.94-3.12,13.91-3.12a37.11,37.11,0,0,1,12.74,1.88,14.46,14.46,0,0,1,7.8,6.83h.78v-38h13.78v96.59H467.3l-.52-8.58H466a14.52,14.52,0,0,1-8.13,7.6,36.21,36.21,0,0,1-12.67,2Q436.1,168.3,431,165.24Zm28.66-11.37a9,9,0,0,0,4.62-4.55,17.65,17.65,0,0,0,1.49-6q.33-3.51.33-9.36t-.33-9.1a18.34,18.34,0,0,0-1.36-5.72,9.25,9.25,0,0,0-4.68-4.62,22.05,22.05,0,0,0-9-1.49q-7.29,0-10.27,1.36c-2,.91-3.34,2.78-4,5.59s-1,7.52-1,14.11.34,11.42,1,14.23,2.06,4.68,4.09,5.59,5.48,1.37,10.34,1.37A21.93,21.93,0,0,0,459.69,153.87Z"/><path class="cls-2" d="M500.32,84.71v-14h14.43v14Zm.26,82.55V101h13.78v66.3Z"/><path class="cls-2" d="M589.63,139.05H546.34q0,7.92,1.1,11.24t5.2,4.62q4.1,1.29,13.85,1.3a196.07,196.07,0,0,0,20.54-1.3v11.44a88.89,88.89,0,0,1-10.92,1.43q-6.63.51-12.87.52-13.92,0-20.41-3.19A15.44,15.44,0,0,1,534.38,155q-1.95-6.9-2-20.8,0-13.26,2-20.28a16.65,16.65,0,0,1,8.32-10.53q6.36-3.51,19.63-3.51,12.74,0,18.52,3.51a15.37,15.37,0,0,1,7.28,10.2q1.5,6.7,1.5,20.61Zm-37.9-25.68a7.21,7.21,0,0,0-4.22,4.75q-1.05,3.38-1.17,10.92H576.5v-.26q0-7.41-1.3-10.92a7.51,7.51,0,0,0-4.23-4.68q-2.93-1.17-9-1.17C557.26,112,553.85,112.46,551.73,113.37Z"/><path class="cls-2" d="M650.86,131.64q0-9-.91-12.68t-3.64-4.81c-1.82-.73-5-1.1-9.49-1.1s-7.87.69-10.08,2.08a9.56,9.56,0,0,0-4.29,6.17,54,54,0,0,0-1,11.77v34.19H607.7V101h12.74l.39,8.71h1a15.12,15.12,0,0,1,7.34-7.35q5-2.4,13.72-2.4,9.09,0,13.78,2.86A14.06,14.06,0,0,1,663,111q1.62,5.4,1.63,14.76v41.47H650.86Z"/><path class="cls-2" d="M691.28,167.26V113.18H678V101h13.26V81.72h13.78V101h15.47v12.22H705.06v54.08Z"/><path class="cls-2" d="M788,139.05H744.72q0,7.92,1.1,11.24t5.2,4.62q4.1,1.29,13.85,1.3a196.07,196.07,0,0,0,20.54-1.3v11.44a88.89,88.89,0,0,1-10.92,1.43q-6.63.51-12.87.52-13.92,0-20.41-3.19A15.44,15.44,0,0,1,732.76,155q-1.95-6.9-2-20.8,0-13.26,2-20.28a16.65,16.65,0,0,1,8.32-10.53q6.36-3.51,19.63-3.51,12.74,0,18.52,3.51a15.37,15.37,0,0,1,7.28,10.2q1.5,6.7,1.5,20.61Zm-37.9-25.68a7.21,7.21,0,0,0-4.22,4.75q-1,3.38-1.17,10.92h30.16v-.26q0-7.41-1.3-10.92a7.51,7.51,0,0,0-4.23-4.68q-2.93-1.17-9-1.17C755.64,112,752.23,112.46,750.11,113.37Z"/><path class="cls-2" d="M840.91,167.78c-3.46.34-6.76.52-9.88.52q-12.48,0-18.33-3.64a16.59,16.59,0,0,1-7.54-10.53q-1.68-6.9-1.69-20.15,0-12.48,1.95-19.57a17.89,17.89,0,0,1,7.8-10.79q5.85-3.7,17.42-3.7a98.37,98.37,0,0,1,9.88.52,53.57,53.57,0,0,1,8.58,1.43v11.57a79,79,0,0,0-15-1.3q-7.67,0-11.11,1.75a8.88,8.88,0,0,0-4.55,6.18q-1.11,4.41-1.11,14,0,9.87,1.17,14.3a8.66,8.66,0,0,0,4.62,6q3.44,1.63,11.24,1.63a118.29,118.29,0,0,0,15.21-1.17v11.57A76.58,76.58,0,0,1,840.91,167.78Z"/><path class="cls-2" d="M909.16,131.64q0-9-.91-12.68c-.6-2.47-1.82-4.07-3.64-4.81s-5-1.1-9.49-1.1-7.86.69-10.07,2.08a9.56,9.56,0,0,0-4.29,6.17,53.92,53.92,0,0,0-1,11.77v34.19H866V70.67h13.78V109h.91a14.66,14.66,0,0,1,7.15-6.76q4.81-2.22,13.26-2.21,9.24,0,13.91,2.79a13.9,13.9,0,0,1,6.31,8.26q1.62,5.46,1.62,14.82v41.34H909.16Z"/><path class="cls-2" d="M986.77,131.64q0-9-.91-12.68c-.6-2.47-1.82-4.07-3.64-4.81s-5-1.1-9.49-1.1-7.86.69-10.07,2.08a9.56,9.56,0,0,0-4.29,6.17,53.92,53.92,0,0,0-1,11.77v34.19H943.61V101h12.74l.39,8.71h1a15.14,15.14,0,0,1,7.35-7.35q5-2.4,13.71-2.4,9.1,0,13.78,2.86a14.12,14.12,0,0,1,6.31,8.25q1.62,5.4,1.62,14.76v41.47H986.77Z"/><path class="cls-2" d="M1021,84.71v-14h14.43v14Zm.26,82.55V101H1035v66.3Z"/><path class="cls-2" d="M1097.4,167.26l-20.93-27.17h-7v27.17h-13.78V70.67h13.78v57.07h7L1097.66,101h15.21l-25.35,32,25.74,34.32Z"/><path class="cls-2" d="M235.44,291.26V212.14h9.89v79.12Z"/><path class="cls-2" d="M306.51,258.25q0-8.16-1-11.67a6.67,6.67,0,0,0-3.91-4.66c-1.91-.76-5.13-1.15-9.66-1.15q-7.25,0-10.63,2.3A9.88,9.88,0,0,0,277,249.4a59.48,59.48,0,0,0-.86,11.61v30.25h-9.32V232.61h8.28l.46,8.28h.69A13.87,13.87,0,0,1,282.7,234q4.49-2.35,13-2.35t12.82,2.41a12.09,12.09,0,0,1,5.81,7.19q1.49,4.77,1.49,13.28v36.69h-9.31Z"/><path class="cls-2" d="M375.39,258.25q0-8.16-1-11.67a6.7,6.7,0,0,0-3.91-4.66c-1.92-.76-5.14-1.15-9.66-1.15q-7.25,0-10.64,2.3a9.86,9.86,0,0,0-4.25,6.33A58.55,58.55,0,0,0,345,261v30.25h-9.31V205.81H345v34.5h.58a12.64,12.64,0,0,1,6.27-6.32q4.42-2.19,12.7-2.19,8.52,0,12.83,2.36a11.84,11.84,0,0,1,5.8,7.13q1.5,4.77,1.5,13.28v36.69h-9.32Z"/><path class="cls-2" d="M405.52,288.44q-4.59-3.74-4.6-13.28,0-6.8,1.61-10.58a10.3,10.3,0,0,1,5.47-5.52c2.56-1.15,6.19-1.73,10.86-1.73q3.34,0,22,.58v-3.45q0-6.9-1.32-9.78a6.62,6.62,0,0,0-4.83-3.68,61.11,61.11,0,0,0-11.91-.8c-2.45,0-5.54.13-9.25.4s-6.62.56-8.69.86V233.3a122.75,122.75,0,0,1,21.28-1.61q10.35,0,15.47,2.12a11.59,11.59,0,0,1,6.84,6.9q1.72,4.78,1.72,13.86v36.69h-8.39l-.46-8.17h-.69a12.57,12.57,0,0,1-7.76,7.3,39.93,39.93,0,0,1-12.6,1.79Q410.13,292.18,405.52,288.44Zm27.66-5.69a8.15,8.15,0,0,0,5.23-4q2.41-4.14,2.42-11.5v-2.64H421.28a26.16,26.16,0,0,0-7.07.69A4.89,4.89,0,0,0,411,268a16,16,0,0,0-.92,6.27,13.57,13.57,0,0,0,1,6.09A5.66,5.66,0,0,0,415,283a37.35,37.35,0,0,0,8.8.75A35,35,0,0,0,433.18,282.75Z"/><path class="cls-2" d="M470.15,291.26V205.81h9.32v85.45Z"/><path class="cls-2" d="M504.19,291.26V241.12H492.35v-8.51h11.84v-17h9.32v17h14v8.51h-14v50.14Z"/><path class="cls-2" d="M549.39,291.72c-4-.31-7.52-.65-10.58-1V282.4a188.2,188.2,0,0,0,20.81,1.27,33.37,33.37,0,0,0,8.63-.81,5.38,5.38,0,0,0,3.62-2.59,12.82,12.82,0,0,0,.86-5.34,14.83,14.83,0,0,0-.63-5.12,3.68,3.68,0,0,0-2-2.13,19.14,19.14,0,0,0-4.83-.92L550,265a18.73,18.73,0,0,1-8.11-2.42,9.25,9.25,0,0,1-3.85-5.06,29.07,29.07,0,0,1-1-8.62c0-5,.9-8.72,2.7-11.22a12.46,12.46,0,0,1,7.47-4.88A56.85,56.85,0,0,1,560,231.69q4.49,0,9.66.46a86.24,86.24,0,0,1,8.74,1.15v8.28a121.63,121.63,0,0,0-18.52-1.38,47.53,47.53,0,0,0-8.05.51,7.05,7.05,0,0,0-4.25,2.3q-1.5,1.78-1.5,5.58a14.36,14.36,0,0,0,.58,4.83,3.45,3.45,0,0,0,2,2.07,18.3,18.3,0,0,0,4.6.92l15.87,1.84a23.48,23.48,0,0,1,7.65,1.9,8,8,0,0,1,3.79,4.66q1.21,3.33,1.21,9.89,0,7.24-2.36,11a11.6,11.6,0,0,1-6.9,5.11,45.87,45.87,0,0,1-12.36,1.33C556.94,292.18,553.37,292,549.39,291.72Z"/><path class="cls-2" d="M612.75,291.26l-21.62-58.65h9.78l17.36,48.3h.81l17.25-48.3h9.54l-21.5,58.65Z"/><path class="cls-2" d="M704.75,265.27H664.62q0,8.39,1.15,12a7.74,7.74,0,0,0,5,5q3.86,1.44,12.94,1.44a146.76,146.76,0,0,0,18.74-1.27v8.17a94,94,0,0,1-9.54,1.15c-3.91.3-7.63.46-11.16.46q-11.85,0-17.42-2.76a13.58,13.58,0,0,1-7.3-8.86q-1.72-6.09-1.73-18.51,0-12.2,1.55-18.29a13.84,13.84,0,0,1,7-9.08q5.46-3,17.31-3,11,0,16,2.93a13.13,13.13,0,0,1,6.27,8.85q1.32,5.92,1.32,18.46Zm-34.56-23.75a7.3,7.3,0,0,0-4.37,4.94q-1.1,3.63-1.2,11.68h31.16v-.92q0-7.59-1.32-11.16a7.47,7.47,0,0,0-4.31-4.71c-2-.77-5.06-1.15-9.2-1.15Q673.47,240.2,670.19,241.52Z"/><path class="cls-2" d="M722.23,232.61h8.28l.46,11.15h.69q2.07-6.9,6.9-9.49t12.65-2.58v10q-7.94,0-12.19,2.42a12.57,12.57,0,0,0-5.86,7.41q-1.62,5-1.61,13.52v26.22h-9.32Z"/><path class="cls-2" d="M760.41,291.26v-7.94l34.16-42.2H761.79v-8.51h44.85v7.93l-34,42.21h34.27v8.51Z"/><path class="cls-2" d="M869.77,265.27H829.64q0,8.39,1.15,12a7.76,7.76,0,0,0,5,5q3.86,1.44,12.94,1.44a146.76,146.76,0,0,0,18.74-1.27v8.17a94,94,0,0,1-9.54,1.15c-3.91.3-7.63.46-11.16.46q-11.84,0-17.42-2.76a13.58,13.58,0,0,1-7.3-8.86q-1.72-6.09-1.73-18.51,0-12.2,1.56-18.29a13.79,13.79,0,0,1,7-9.08q5.46-3,17.31-3,11,0,16,2.93a13.13,13.13,0,0,1,6.27,8.85q1.32,5.92,1.32,18.46Zm-34.55-23.75a7.25,7.25,0,0,0-4.37,4.94q-1.1,3.63-1.21,11.68H860.8v-.92q0-7.59-1.32-11.16a7.47,7.47,0,0,0-4.31-4.71q-3-1.15-9.2-1.15Q838.5,240.2,835.22,241.52Z"/><path class="cls-2" d="M886.91,216.51v-10.7h9.89v10.7Zm.34,74.75V232.61h9.32v58.65Z"/><path class="cls-2" d="M946.19,291.72a83.79,83.79,0,0,1-8.45.46q-10.82,0-15.87-3.11a14.09,14.09,0,0,1-6.5-9.2q-1.44-6.09-1.44-17.94,0-11.61,1.73-17.94a14.8,14.8,0,0,1,6.79-9.31q5.06-3,14.94-3a79.94,79.94,0,0,1,8.34.46c2.95.3,5.47.65,7.53,1v8.28a75.39,75.39,0,0,0-13.56-1.26q-7.37,0-10.76,1.72a8.93,8.93,0,0,0-4.54,6.1q-1.15,4.36-1.15,13.91T924.46,276a8.78,8.78,0,0,0,4.6,6q3.39,1.6,11,1.61a100.08,100.08,0,0,0,13.68-1.15v8.16C951.65,291.07,949.14,291.41,946.19,291.72Z"/><path class="cls-2" d="M1009,258.25q0-8.16-1-11.67a6.67,6.67,0,0,0-3.91-4.66c-1.91-.76-5.13-1.15-9.66-1.15q-7.24,0-10.63,2.3a9.88,9.88,0,0,0-4.26,6.33,59.48,59.48,0,0,0-.86,11.61v30.25h-9.32V205.81h9.32v34.5h.57a12.72,12.72,0,0,1,6.27-6.32q4.43-2.19,12.71-2.19,8.5,0,12.82,2.36a11.86,11.86,0,0,1,5.81,7.13q1.49,4.77,1.49,13.28v36.69H1009Z"/><path class="cls-2" d="M1077.92,258.25q0-8.16-1-11.67a6.7,6.7,0,0,0-3.91-4.66c-1.92-.76-5.14-1.15-9.66-1.15q-7.24,0-10.64,2.3a9.86,9.86,0,0,0-4.25,6.33,58.55,58.55,0,0,0-.87,11.61v30.25h-9.31V232.61h8.28l.46,8.28h.69a13.82,13.82,0,0,1,6.44-6.85q4.49-2.35,13-2.35t12.83,2.41a12.07,12.07,0,0,1,5.8,7.19q1.5,4.77,1.5,13.28v36.69h-9.32Z"/><path class="cls-2" d="M1106.79,216.51v-10.7h9.89v10.7Zm.34,74.75V232.61h9.32v58.65Z"/><path class="cls-2" d="M1145.08,291.72c-4-.31-7.51-.65-10.58-1V282.4a188.23,188.23,0,0,0,20.82,1.27,33.28,33.28,0,0,0,8.62-.81,5.41,5.41,0,0,0,3.63-2.59,12.82,12.82,0,0,0,.86-5.34,14.83,14.83,0,0,0-.63-5.12,3.72,3.72,0,0,0-2-2.13,19.14,19.14,0,0,0-4.83-.92L1145.66,265a18.68,18.68,0,0,1-8.11-2.42,9.21,9.21,0,0,1-3.85-5.06,29,29,0,0,1-1-8.62c0-5,.9-8.72,2.71-11.22a12.46,12.46,0,0,1,7.47-4.88,56.75,56.75,0,0,1,12.82-1.15q4.48,0,9.66.46a85.85,85.85,0,0,1,8.74,1.15v8.28a121.59,121.59,0,0,0-18.51-1.38,47.53,47.53,0,0,0-8,.51,7.11,7.11,0,0,0-4.26,2.3q-1.48,1.78-1.49,5.58a14.68,14.68,0,0,0,.57,4.83,3.49,3.49,0,0,0,2,2.07,18.3,18.3,0,0,0,4.6.92l15.87,1.84a23.48,23.48,0,0,1,7.65,1.9,8,8,0,0,1,3.79,4.66q1.21,3.33,1.21,9.89,0,7.24-2.36,11a11.6,11.6,0,0,1-6.9,5.11,46,46,0,0,1-12.36,1.33C1152.63,292.18,1149.07,292,1145.08,291.72Z"/></g></g></svg>